<svg viewBox="0 0 49 42" fill="none" xmlns="http://www.w3.org/2000/svg">
  <path
    d="M42.3541 6.17673H32.6076V4.89355C32.5999 2.27051 30.4754 0.146011 27.8524 0.138275H20.4553C17.8322 0.146011 15.7077 2.27051 15.7 4.89355V6.17673H5.95354C2.66551 6.17673 2.97891e-08 8.84223 2.97891e-08 12.1303V17.9574C-0.000188672 19.8461 0.896144 21.6227 2.41538 22.7447V35.1613C2.42519 38.4922 5.12297 41.1899 8.45383 41.1998H31.6072H39.8538C43.1847 41.1899 45.8824 38.4922 45.8922 35.1613V22.7447C47.4115 21.6227 48.3078 19.8461 48.3076 17.9574V12.1303C48.3076 8.84223 45.6421 6.17673 42.3541 6.17673ZM18.1154 4.89355C18.117 3.60189 19.1636 2.55526 20.4553 2.55366H27.8524C29.144 2.55526 30.1907 3.60189 30.1923 4.89355V6.17673H18.1154V4.89355ZM43.4769 35.1613C43.4748 37.1614 41.8539 38.7823 39.8538 38.7844H8.45383C6.45369 38.7823 4.83284 37.1614 4.83076 35.1613V23.8033C4.91002 23.8184 4.99021 23.8326 5.07041 23.8449L20.5307 26.164V26.7075C20.5307 28.7085 22.1528 30.3305 24.1538 30.3305C26.1548 30.3305 27.7769 28.7085 27.7769 26.7075V26.164L43.2372 23.8449C43.3174 23.8326 43.3976 23.8184 43.4769 23.8033V35.1613ZM22.9461 26.7075V24.2921C22.9467 23.6251 23.4879 23.0849 24.1548 23.0854C24.8211 23.0861 25.3609 23.626 25.3615 24.2921V26.7075C25.3615 27.3744 24.8208 27.9152 24.1538 27.9152C23.4868 27.9152 22.9461 27.3744 22.9461 26.7075ZM45.8922 17.9574C45.9018 19.7125 44.6158 21.2059 42.8787 21.4568L27.7325 23.7279C27.4204 21.7514 25.5652 20.4022 23.5886 20.7143C22.037 20.9592 20.8201 22.1763 20.5751 23.7279L5.42895 21.4559C3.69223 21.205 2.40632 19.7121 2.41538 17.9574V12.1303C2.41746 10.177 4.00029 8.59418 5.95354 8.59211H42.3541C44.3073 8.59418 45.8902 10.177 45.8922 12.1303V17.9574Z"
    fill="black" />
</svg>